<svg width="52" height="52" viewBox="0 0 52 52" fill="none" xmlns="http://www.w3.org/2000/svg">
<g filter="url(#filter0_dd_140_8883)">
<rect x="6" y="2" width="40" height="40" rx="20" fill="#272727"/>
<rect x="6.5" y="2.5" width="39" height="39" rx="19.5" stroke="url(#paint0_linear_140_8883)" stroke-opacity="0.6"/>
</g>
<path d="M31 28.6666H21C19.6193 28.6666 18.5 27.5473 18.5 26.1666V17.4724C18.5 16.291 19.4577 15.3333 20.6391 15.3333H22.762C23.5773 15.3333 24.9875 17.1536 25.5992 17.6927C25.7155 17.7952 26.0823 17.9999 26.2372 17.9999H31.0011C32.3818 17.9999 33.5 19.1192 33.5 20.4999V26.1666C33.5 27.5473 32.3807 28.6666 31 28.6666Z" fill="url(#paint1_linear_140_8883)"/>
<defs>
<filter id="filter0_dd_140_8883" x="0" y="0" width="52" height="52" filterUnits="userSpaceOnUse" color-interpolation-filters="sRGB">
<feFlood flood-opacity="0" result="BackgroundImageFix"/>
<feColorMatrix in="SourceAlpha" type="matrix" values="0 0 0 0 0 0 0 0 0 0 0 0 0 0 0 0 0 0 127 0" result="hardAlpha"/>
<feMorphology radius="2" operator="erode" in="SourceAlpha" result="effect1_dropShadow_140_8883"/>
<feOffset dy="2"/>
<feGaussianBlur stdDeviation="2"/>
<feComposite in2="hardAlpha" operator="out"/>
<feColorMatrix type="matrix" values="0 0 0 0 0 0 0 0 0 0 0 0 0 0 0 0 0 0 0.04 0"/>
<feBlend mode="normal" in2="BackgroundImageFix" result="effect1_dropShadow_140_8883"/>
<feColorMatrix in="SourceAlpha" type="matrix" values="0 0 0 0 0 0 0 0 0 0 0 0 0 0 0 0 0 0 127 0" result="hardAlpha"/>
<feMorphology radius="2" operator="erode" in="SourceAlpha" result="effect2_dropShadow_140_8883"/>
<feOffset dy="4"/>
<feGaussianBlur stdDeviation="4"/>
<feComposite in2="hardAlpha" operator="out"/>
<feColorMatrix type="matrix" values="0 0 0 0 0 0 0 0 0 0 0 0 0 0 0 0 0 0 0.08 0"/>
<feBlend mode="normal" in2="effect1_dropShadow_140_8883" result="effect2_dropShadow_140_8883"/>
<feBlend mode="normal" in="SourceGraphic" in2="effect2_dropShadow_140_8883" result="shape"/>
</filter>
<linearGradient id="paint0_linear_140_8883" x1="6" y1="2" x2="46.8582" y2="2.89675" gradientUnits="userSpaceOnUse">
<stop stop-color="#8AD4EC"/>
<stop offset="0.217372" stop-color="#EF96FF"/>
<stop offset="0.540308" stop-color="#FF56A9"/>
<stop offset="0.852826" stop-color="#FFAA6C"/>
</linearGradient>
<linearGradient id="paint1_linear_140_8883" x1="18.5" y1="15.3333" x2="33.8199" y2="15.7115" gradientUnits="userSpaceOnUse">
<stop stop-color="#8AD4EC"/>
<stop offset="0.217372" stop-color="#EF96FF"/>
<stop offset="0.540308" stop-color="#FF56A9"/>
<stop offset="0.852826" stop-color="#FFAA6C"/>
</linearGradient>
</defs>
</svg>
