<svg width="64" height="64" viewBox="0 0 64 64" fill="none" xmlns="http://www.w3.org/2000/svg">
<path d="M41.8017 28.6331C42.8878 27.6384 42.9619 25.9516 41.9672 24.8655C40.9725 23.7794 39.2857 23.7053 38.1996 24.7001L28.354 33.7172L25.8017 31.3796C24.7156 30.3849 23.0288 30.459 22.0341 31.5451C21.0394 32.6312 21.1135 34.318 22.1996 35.3127L26.553 39.2998C27.5722 40.2333 29.1358 40.2333 30.1551 39.2998L41.8017 28.6331Z" fill="url(#paint0_linear_140_10639)"/>
<path fill-rule="evenodd" clip-rule="evenodd" d="M32.0007 5.33325C17.2731 5.33325 5.33398 17.2723 5.33398 31.9999C5.33398 46.7275 17.2731 58.6666 32.0007 58.6666C46.7282 58.6666 58.6673 46.7275 58.6673 31.9999C58.6673 17.2723 46.7282 5.33325 32.0007 5.33325ZM10.6673 31.9999C10.6673 20.2178 20.2186 10.6666 32.0007 10.6666C43.7827 10.6666 53.334 20.2178 53.334 31.9999C53.334 43.782 43.7827 53.3333 32.0007 53.3333C20.2186 53.3333 10.6673 43.782 10.6673 31.9999Z" fill="url(#paint1_linear_140_10639)"/>
<defs>
<linearGradient id="paint0_linear_140_10639" x1="5.33398" y1="5.33325" x2="59.8116" y2="6.52892" gradientUnits="userSpaceOnUse">
<stop stop-color="#8AD4EC"/>
<stop offset="0.217372" stop-color="#EF96FF"/>
<stop offset="0.540308" stop-color="#FF56A9"/>
<stop offset="0.852826" stop-color="#FFAA6C"/>
</linearGradient>
<linearGradient id="paint1_linear_140_10639" x1="5.33398" y1="5.33325" x2="59.8116" y2="6.52892" gradientUnits="userSpaceOnUse">
<stop stop-color="#8AD4EC"/>
<stop offset="0.217372" stop-color="#EF96FF"/>
<stop offset="0.540308" stop-color="#FF56A9"/>
<stop offset="0.852826" stop-color="#FFAA6C"/>
</linearGradient>
</defs>
</svg>
