<svg width="24" height="24" viewBox="0 0 24 24" fill="none" xmlns="http://www.w3.org/2000/svg">
<path opacity="0.5" d="M3 10C3 6.229 3 4.343 4.172 3.172C5.344 2.001 7.229 2 11 2H13C16.771 2 18.657 2 19.828 3.172C20.999 4.344 21 6.229 21 10V14C21 17.771 21 19.657 19.828 20.828C18.656 21.999 16.771 22 13 22H11C7.229 22 5.343 22 4.172 20.828C3.001 19.656 3 17.771 3 14V10Z" stroke="url(#paint0_linear_259_9179)" stroke-width="1.5"/>
<path d="M8 12H16M8 8H16M8 16H13" stroke="url(#paint1_linear_259_9179)" stroke-width="1.5" stroke-linecap="round"/>
<defs>
<linearGradient id="paint0_linear_259_9179" x1="3" y1="2" x2="21.3879" y2="2.36322" gradientUnits="userSpaceOnUse">
<stop stop-color="#8AD4EC"/>
<stop offset="0.217372" stop-color="#EF96FF"/>
<stop offset="0.540308" stop-color="#FF56A9"/>
<stop offset="0.852826" stop-color="#FFAA6C"/>
</linearGradient>
<linearGradient id="paint1_linear_259_9179" x1="8" y1="8" x2="16.1716" y2="8.17935" gradientUnits="userSpaceOnUse">
<stop stop-color="#8AD4EC"/>
<stop offset="0.217372" stop-color="#EF96FF"/>
<stop offset="0.540308" stop-color="#FF56A9"/>
<stop offset="0.852826" stop-color="#FFAA6C"/>
</linearGradient>
</defs>
</svg>
