<svg width="64" height="64" viewBox="0 0 64 64" fill="none" xmlns="http://www.w3.org/2000/svg">
<path d="M45.3333 10.6667C45.3333 9.19391 46.5272 8 48 8C49.4728 8 50.6667 9.19391 50.6667 10.6667V19.2C50.6667 20.6728 49.4728 21.8667 48 21.8667H39.7025C38.2298 21.8667 37.0359 20.6728 37.0359 19.2C37.0359 17.7272 38.2298 16.5333 39.7025 16.5333H41.5292C38.6349 14.5084 35.1493 13.3333 31.4066 13.3333C21.4954 13.3333 13.3333 21.6193 13.3333 32C13.3333 33.4728 12.1394 34.6667 10.6667 34.6667C9.19391 34.6667 8 33.4728 8 32C8 18.8166 18.4091 8 31.4066 8C36.6326 8 41.4487 9.75605 45.3333 12.709V10.6667Z" fill="url(#paint0_linear_140_10455)" fill-opacity="0.6"/>
<path d="M18.6667 53.3333C18.6667 54.8061 17.4728 56 16 56C14.5272 56 13.3333 54.8061 13.3333 53.3333V44.8C13.3333 43.3272 14.5272 42.1333 16 42.1333H24.2975C25.7702 42.1333 26.9641 43.3272 26.9641 44.8C26.9641 46.2728 25.7702 47.4667 24.2975 47.4667H22.4708C25.3651 49.4916 28.8507 50.6667 32.5934 50.6667C42.5046 50.6667 50.6667 42.3807 50.6667 32C50.6667 30.5272 51.8606 29.3333 53.3333 29.3333C54.8061 29.3333 56 30.5272 56 32C56 45.1834 45.5909 56 32.5934 56C27.3674 56 22.5513 54.244 18.6667 51.291V53.3333Z" fill="url(#paint1_linear_140_10455)" fill-opacity="0.6"/>
<defs>
<linearGradient id="paint0_linear_140_10455" x1="8" y1="8" x2="57.0299" y2="9.0761" gradientUnits="userSpaceOnUse">
<stop stop-color="#8AD4EC"/>
<stop offset="0.217372" stop-color="#EF96FF"/>
<stop offset="0.540308" stop-color="#FF56A9"/>
<stop offset="0.852826" stop-color="#FFAA6C"/>
</linearGradient>
<linearGradient id="paint1_linear_140_10455" x1="8" y1="8" x2="57.0299" y2="9.0761" gradientUnits="userSpaceOnUse">
<stop stop-color="#8AD4EC"/>
<stop offset="0.217372" stop-color="#EF96FF"/>
<stop offset="0.540308" stop-color="#FF56A9"/>
<stop offset="0.852826" stop-color="#FFAA6C"/>
</linearGradient>
</defs>
</svg>
