<svg width="1044" height="200" viewBox="0 0 1044 200" fill="none" xmlns="http://www.w3.org/2000/svg">
<g opacity="0.03">
<path d="M14.4987 2.46193C22.1575 0.215909 30.4327 2.2264 36.2072 7.73608L71.716 41.6164C77.4905 47.1261 79.887 55.2979 78.0027 63.0536L66.4159 110.745C64.5316 118.501 58.6529 124.662 50.9941 126.908L3.89842 140.72C-3.76035 142.966 -12.0356 140.955 -17.8101 135.446L-53.3189 101.565C-59.0934 96.0556 -61.4899 87.8838 -59.6056 80.1281L-48.0188 32.4363C-46.1345 24.6806 -40.2558 18.5193 -32.597 16.2733L14.4987 2.46193Z" stroke="url(#paint0_linear_346_12702)" stroke-width="4"/>
<path d="M-59.224 -136.065C-51.5652 -138.311 -43.29 -136.3 -37.5155 -130.791L-2.00663 -96.9102C3.76787 -91.4005 6.16434 -83.2287 4.28007 -75.473L-7.30676 -27.7812C-9.19103 -20.0255 -15.0698 -13.8642 -22.7285 -11.6182L-69.8242 2.19318C-77.483 4.43919 -85.7582 2.42871 -91.5327 -3.08097L-127.042 -36.9613C-132.816 -42.471 -135.213 -50.6428 -133.328 -58.3985L-121.741 -106.09C-119.857 -113.846 -113.978 -120.007 -106.32 -122.253L-59.224 -136.065Z" stroke="url(#paint1_linear_346_12702)" stroke-width="4"/>
<path d="M42.1667 -111.431C49.8254 -113.677 58.1006 -111.667 63.8751 -106.157L99.384 -72.2766C105.158 -66.7669 107.555 -58.5951 105.671 -50.8394L94.0839 -3.14769C92.1996 4.60801 86.3208 10.7693 78.6621 13.0153L31.5664 26.8267C23.9076 29.0727 15.6324 27.0623 9.8579 21.5526L-25.651 -12.3278C-31.4255 -17.8375 -33.8219 -26.0093 -31.9377 -33.765L-20.3508 -81.4567C-18.4666 -89.2124 -12.5878 -95.3737 -4.92904 -97.6197L42.1667 -111.431Z" stroke="url(#paint2_linear_346_12702)" stroke-width="4"/>
<path d="M111.721 26.0832C119.38 23.8371 127.655 25.8476 133.43 31.3573L168.939 65.2377C174.713 70.7473 177.11 78.9191 175.225 86.6748L163.639 134.367C161.754 142.122 155.876 148.284 148.217 150.53L101.121 164.341C93.4623 166.587 85.1871 164.577 79.4126 159.067L43.9037 125.186C38.1292 119.677 35.7328 111.505 37.617 103.749L49.2039 56.0576C51.0881 48.3019 56.9669 42.1406 64.6256 39.8945L111.721 26.0832Z" stroke="url(#paint3_linear_346_12702)" stroke-width="4"/>
<path d="M213.116 50.7167C220.775 48.4707 229.05 50.4812 234.824 55.9908L270.333 89.8712C276.108 95.3809 278.504 103.553 276.62 111.308L265.033 159C263.149 166.756 257.27 172.917 249.611 175.163L202.516 188.975C194.857 191.221 186.582 189.21 180.807 183.7L145.298 149.82C139.524 144.31 137.127 136.139 139.012 128.383L150.598 80.6911C152.483 72.9354 158.361 66.7741 166.02 64.5281L213.116 50.7167Z" stroke="url(#paint4_linear_346_12702)" stroke-width="4"/>
<path d="M139.393 -87.8099C147.052 -90.0559 155.327 -88.0455 161.102 -82.5358L196.611 -48.6554C202.385 -43.1457 204.782 -34.9739 202.897 -27.2182L191.31 20.4735C189.426 28.2292 183.547 34.3905 175.889 36.6366L128.793 50.4479C121.134 52.694 112.859 50.6835 107.084 45.1738L71.5756 11.2934C65.8011 5.78375 63.4046 -2.38804 65.2889 -10.1437L76.8757 -57.8355C78.76 -65.5912 84.6388 -71.7525 92.2975 -73.9985L139.393 -87.8099Z" stroke="url(#paint5_linear_346_12702)" stroke-width="4"/>
<path d="M240.784 -63.1764C248.443 -65.4224 256.718 -63.4119 262.492 -57.9022L298.001 -24.0219C303.776 -18.5122 306.172 -10.3404 304.288 -2.58469L292.701 45.1071C290.817 52.8628 284.938 59.0241 277.279 61.2701L230.184 75.0815C222.525 77.3275 214.25 75.317 208.475 69.8073L172.966 35.927C167.192 30.4173 164.795 22.2455 166.68 14.4898L178.266 -33.202C180.151 -40.9577 186.029 -47.119 193.688 -49.365L240.784 -63.1764Z" stroke="url(#paint6_linear_346_12702)" stroke-width="4"/>
<path d="M363.12 87.1609C370.779 84.9149 379.054 86.9254 384.828 92.435L420.337 126.315C426.112 131.825 428.508 139.997 426.624 147.753L415.037 195.444C413.153 203.2 407.274 209.361 399.615 211.607L352.52 225.419C344.861 227.665 336.586 225.654 330.811 220.145L295.302 186.264C289.528 180.755 287.131 172.583 289.015 164.827L300.602 117.135C302.487 109.38 308.365 103.218 316.024 100.972L363.12 87.1609Z" stroke="url(#paint7_linear_346_12702)" stroke-width="4"/>
<path d="M464.514 111.794C472.173 109.548 480.448 111.559 486.223 117.069L521.732 150.949C527.506 156.459 529.903 164.63 528.018 172.386L516.432 220.078C514.547 227.834 508.669 233.995 501.01 236.241L453.914 250.052C446.255 252.298 437.98 250.288 432.206 244.778L396.697 210.898C390.922 205.388 388.526 197.216 390.41 189.461L401.997 141.769C403.881 134.013 409.76 127.852 417.419 125.606L464.514 111.794Z" stroke="url(#paint8_linear_346_12702)" stroke-width="4"/>
<path d="M390.792 -26.7322C398.45 -28.9782 406.726 -26.9677 412.5 -21.458L448.009 12.4224C453.783 17.932 456.18 26.1038 454.296 33.8595L442.709 81.5513C440.825 89.307 434.946 95.4683 427.287 97.7143L380.191 111.526C372.533 113.772 364.257 111.761 358.483 106.252L322.974 72.3712C317.2 66.8615 314.803 58.6897 316.687 50.934L328.274 3.24226C330.158 -4.51345 336.037 -10.6747 343.696 -12.9208L390.792 -26.7322Z" stroke="url(#paint9_linear_346_12702)" stroke-width="4"/>
<path d="M492.182 -2.09861C499.841 -4.34464 508.116 -2.33415 513.891 3.17553L549.4 37.0559C555.174 42.5656 557.571 50.7374 555.686 58.4931L544.099 106.185C542.215 113.941 536.336 120.102 528.678 122.348L481.582 136.159C473.923 138.405 465.648 136.395 459.874 130.885L424.365 97.0047C418.59 91.495 416.194 83.3233 418.078 75.5676L429.665 27.8758C431.549 20.1201 437.428 13.9588 445.087 11.7128L492.182 -2.09861Z" stroke="url(#paint10_linear_346_12702)" stroke-width="4"/>
<path d="M561.737 135.416C569.396 133.17 577.671 135.18 583.445 140.69L618.954 174.57C624.729 180.08 627.125 188.252 625.241 196.007L613.654 243.699C611.77 251.455 605.891 257.616 598.232 259.862L551.137 273.674C543.478 275.92 535.203 273.909 529.428 268.399L493.919 234.519C488.145 229.009 485.748 220.838 487.633 213.082L499.219 165.39C501.104 157.634 506.983 151.473 514.641 149.227L561.737 135.416Z" stroke="url(#paint11_linear_346_12702)" stroke-width="4"/>
<path d="M663.131 160.049C670.79 157.803 679.065 159.814 684.84 165.323L720.349 199.204C726.123 204.713 728.52 212.885 726.636 220.641L715.049 268.333C713.164 276.088 707.286 282.25 699.627 284.496L652.531 298.307C644.872 300.553 636.597 298.543 630.823 293.033L595.314 259.153C589.539 253.643 587.143 245.471 589.027 237.715L600.614 190.024C602.498 182.268 608.377 176.107 616.036 173.861L663.131 160.049Z" stroke="url(#paint12_linear_346_12702)" stroke-width="4"/>
<path d="M589.409 21.5227C597.068 19.2767 605.343 21.2872 611.117 26.7969L646.626 60.6772C652.401 66.1869 654.797 74.3587 652.913 82.1144L641.326 129.806C639.442 137.562 633.563 143.723 625.904 145.969L578.809 159.781C571.15 162.027 562.875 160.016 557.1 154.506L521.591 120.626C515.817 115.116 513.42 106.945 515.305 99.1889L526.891 51.4971C528.776 43.7414 534.654 37.5801 542.313 35.3341L589.409 21.5227Z" stroke="url(#paint13_linear_346_12702)" stroke-width="4"/>
<path d="M690.799 46.1561C698.458 43.9101 706.733 45.9206 712.508 51.4303L748.017 85.3107C753.791 90.8203 756.188 98.9921 754.304 106.748L742.717 154.44C740.832 162.195 734.954 168.357 727.295 170.603L680.199 184.414C672.54 186.66 664.265 184.65 658.491 179.14L622.982 145.259C617.207 139.75 614.811 131.578 616.695 123.822L628.282 76.1306C630.166 68.3749 636.045 62.2136 643.704 59.9675L690.799 46.1561Z" stroke="url(#paint14_linear_346_12702)" stroke-width="4"/>
<path d="M813.135 196.494C820.794 194.248 829.069 196.258 834.844 201.768L870.353 235.648C876.127 241.158 878.524 249.33 876.639 257.085L865.053 304.777C863.168 312.533 857.29 318.694 849.631 320.94L802.535 334.751C794.876 336.997 786.601 334.987 780.827 329.477L745.318 295.597C739.543 290.087 737.147 281.915 739.031 274.16L750.618 226.468C752.502 218.712 758.381 212.551 766.04 210.305L813.135 196.494Z" stroke="url(#paint15_linear_346_12702)" stroke-width="4"/>
<path d="M840.807 82.6005C848.466 80.3545 856.741 82.3649 862.516 87.8746L898.025 121.755C903.799 127.265 906.196 135.436 904.311 143.192L892.724 190.884C890.84 198.64 884.961 204.801 877.303 207.047L830.207 220.858C822.548 223.104 814.273 221.094 808.499 215.584L772.99 181.704C767.215 176.194 764.819 168.022 766.703 160.267L778.29 112.575C780.174 104.819 786.053 98.6579 793.712 96.4119L840.807 82.6005Z" stroke="url(#paint16_linear_346_12702)" stroke-width="4"/>
<path d="M942.198 107.234C949.857 104.988 958.132 106.998 963.906 112.508L999.415 146.389C1005.19 151.898 1007.59 160.07 1005.7 167.826L994.115 215.517C992.231 223.273 986.352 229.434 978.693 231.68L931.598 245.492C923.939 247.738 915.664 245.727 909.889 240.218L874.38 206.337C868.606 200.828 866.209 192.656 868.094 184.9L879.68 137.208C881.565 129.453 887.443 123.291 895.102 121.045L942.198 107.234Z" stroke="url(#paint17_linear_346_12702)" stroke-width="4"/>
<path d="M1039.42 130.855C1047.08 128.609 1055.36 130.62 1061.13 136.13L1096.64 170.01C1102.42 175.52 1104.81 183.691 1102.93 191.447L1091.34 239.139C1089.46 246.895 1083.58 253.056 1075.92 255.302L1028.82 269.113C1021.17 271.359 1012.89 269.349 1007.12 263.839L971.607 229.959C965.832 224.449 963.436 216.277 965.32 208.522L976.907 160.83C978.791 153.074 984.67 146.913 992.329 144.667L1039.42 130.855Z" stroke="url(#paint18_linear_346_12702)" stroke-width="4"/>
</g>
<defs>
<linearGradient id="paint0_linear_346_12702" x1="-47.582" y1="-21.6339" x2="104.825" y2="18.9552" gradientUnits="userSpaceOnUse">
<stop stop-color="#8AD4EC"/>
<stop offset="0.217372" stop-color="#EF96FF"/>
<stop offset="0.540308" stop-color="#FF56A9"/>
<stop offset="0.852826" stop-color="#FFAA6C"/>
</linearGradient>
<linearGradient id="paint1_linear_346_12702" x1="-121.305" y1="-160.161" x2="31.1021" y2="-119.571" gradientUnits="userSpaceOnUse">
<stop stop-color="#8AD4EC"/>
<stop offset="0.217372" stop-color="#EF96FF"/>
<stop offset="0.540308" stop-color="#FF56A9"/>
<stop offset="0.852826" stop-color="#FFAA6C"/>
</linearGradient>
<linearGradient id="paint2_linear_346_12702" x1="-19.9141" y1="-135.527" x2="132.493" y2="-94.9379" gradientUnits="userSpaceOnUse">
<stop stop-color="#8AD4EC"/>
<stop offset="0.217372" stop-color="#EF96FF"/>
<stop offset="0.540308" stop-color="#FF56A9"/>
<stop offset="0.852826" stop-color="#FFAA6C"/>
</linearGradient>
<linearGradient id="paint3_linear_346_12702" x1="49.6406" y1="1.9873" x2="202.047" y2="42.5764" gradientUnits="userSpaceOnUse">
<stop stop-color="#8AD4EC"/>
<stop offset="0.217372" stop-color="#EF96FF"/>
<stop offset="0.540308" stop-color="#FF56A9"/>
<stop offset="0.852826" stop-color="#FFAA6C"/>
</linearGradient>
<linearGradient id="paint4_linear_346_12702" x1="151.035" y1="26.6208" x2="303.442" y2="67.2099" gradientUnits="userSpaceOnUse">
<stop stop-color="#8AD4EC"/>
<stop offset="0.217372" stop-color="#EF96FF"/>
<stop offset="0.540308" stop-color="#FF56A9"/>
<stop offset="0.852826" stop-color="#FFAA6C"/>
</linearGradient>
<linearGradient id="paint5_linear_346_12702" x1="77.3125" y1="-111.906" x2="229.719" y2="-71.3167" gradientUnits="userSpaceOnUse">
<stop stop-color="#8AD4EC"/>
<stop offset="0.217372" stop-color="#EF96FF"/>
<stop offset="0.540308" stop-color="#FF56A9"/>
<stop offset="0.852826" stop-color="#FFAA6C"/>
</linearGradient>
<linearGradient id="paint6_linear_346_12702" x1="178.703" y1="-87.2722" x2="331.11" y2="-46.6832" gradientUnits="userSpaceOnUse">
<stop stop-color="#8AD4EC"/>
<stop offset="0.217372" stop-color="#EF96FF"/>
<stop offset="0.540308" stop-color="#FF56A9"/>
<stop offset="0.852826" stop-color="#FFAA6C"/>
</linearGradient>
<linearGradient id="paint7_linear_346_12702" x1="301.039" y1="63.0651" x2="453.446" y2="103.654" gradientUnits="userSpaceOnUse">
<stop stop-color="#8AD4EC"/>
<stop offset="0.217372" stop-color="#EF96FF"/>
<stop offset="0.540308" stop-color="#FF56A9"/>
<stop offset="0.852826" stop-color="#FFAA6C"/>
</linearGradient>
<linearGradient id="paint8_linear_346_12702" x1="402.434" y1="87.6986" x2="554.84" y2="128.288" gradientUnits="userSpaceOnUse">
<stop stop-color="#8AD4EC"/>
<stop offset="0.217372" stop-color="#EF96FF"/>
<stop offset="0.540308" stop-color="#FF56A9"/>
<stop offset="0.852826" stop-color="#FFAA6C"/>
</linearGradient>
<linearGradient id="paint9_linear_346_12702" x1="328.711" y1="-50.828" x2="481.118" y2="-10.2389" gradientUnits="userSpaceOnUse">
<stop stop-color="#8AD4EC"/>
<stop offset="0.217372" stop-color="#EF96FF"/>
<stop offset="0.540308" stop-color="#FF56A9"/>
<stop offset="0.852826" stop-color="#FFAA6C"/>
</linearGradient>
<linearGradient id="paint10_linear_346_12702" x1="430.102" y1="-26.1945" x2="582.508" y2="14.3946" gradientUnits="userSpaceOnUse">
<stop stop-color="#8AD4EC"/>
<stop offset="0.217372" stop-color="#EF96FF"/>
<stop offset="0.540308" stop-color="#FF56A9"/>
<stop offset="0.852826" stop-color="#FFAA6C"/>
</linearGradient>
<linearGradient id="paint11_linear_346_12702" x1="499.656" y1="111.32" x2="652.063" y2="151.909" gradientUnits="userSpaceOnUse">
<stop stop-color="#8AD4EC"/>
<stop offset="0.217372" stop-color="#EF96FF"/>
<stop offset="0.540308" stop-color="#FF56A9"/>
<stop offset="0.852826" stop-color="#FFAA6C"/>
</linearGradient>
<linearGradient id="paint12_linear_346_12702" x1="601.051" y1="135.953" x2="753.458" y2="176.542" gradientUnits="userSpaceOnUse">
<stop stop-color="#8AD4EC"/>
<stop offset="0.217372" stop-color="#EF96FF"/>
<stop offset="0.540308" stop-color="#FF56A9"/>
<stop offset="0.852826" stop-color="#FFAA6C"/>
</linearGradient>
<linearGradient id="paint13_linear_346_12702" x1="527.328" y1="-2.57312" x2="679.735" y2="38.0159" gradientUnits="userSpaceOnUse">
<stop stop-color="#8AD4EC"/>
<stop offset="0.217372" stop-color="#EF96FF"/>
<stop offset="0.540308" stop-color="#FF56A9"/>
<stop offset="0.852826" stop-color="#FFAA6C"/>
</linearGradient>
<linearGradient id="paint14_linear_346_12702" x1="628.719" y1="22.0603" x2="781.126" y2="62.6494" gradientUnits="userSpaceOnUse">
<stop stop-color="#8AD4EC"/>
<stop offset="0.217372" stop-color="#EF96FF"/>
<stop offset="0.540308" stop-color="#FF56A9"/>
<stop offset="0.852826" stop-color="#FFAA6C"/>
</linearGradient>
<linearGradient id="paint15_linear_346_12702" x1="751.055" y1="172.398" x2="903.461" y2="212.987" gradientUnits="userSpaceOnUse">
<stop stop-color="#8AD4EC"/>
<stop offset="0.217372" stop-color="#EF96FF"/>
<stop offset="0.540308" stop-color="#FF56A9"/>
<stop offset="0.852826" stop-color="#FFAA6C"/>
</linearGradient>
<linearGradient id="paint16_linear_346_12702" x1="778.727" y1="58.5046" x2="931.133" y2="99.0937" gradientUnits="userSpaceOnUse">
<stop stop-color="#8AD4EC"/>
<stop offset="0.217372" stop-color="#EF96FF"/>
<stop offset="0.540308" stop-color="#FF56A9"/>
<stop offset="0.852826" stop-color="#FFAA6C"/>
</linearGradient>
<linearGradient id="paint17_linear_346_12702" x1="880.117" y1="83.1382" x2="1032.52" y2="123.727" gradientUnits="userSpaceOnUse">
<stop stop-color="#8AD4EC"/>
<stop offset="0.217372" stop-color="#EF96FF"/>
<stop offset="0.540308" stop-color="#FF56A9"/>
<stop offset="0.852826" stop-color="#FFAA6C"/>
</linearGradient>
<linearGradient id="paint18_linear_346_12702" x1="977.344" y1="106.76" x2="1129.75" y2="147.349" gradientUnits="userSpaceOnUse">
<stop stop-color="#8AD4EC"/>
<stop offset="0.217372" stop-color="#EF96FF"/>
<stop offset="0.540308" stop-color="#FF56A9"/>
<stop offset="0.852826" stop-color="#FFAA6C"/>
</linearGradient>
</defs>
</svg>
