<svg width="24" height="24" viewBox="0 0 24 24" fill="none" xmlns="http://www.w3.org/2000/svg">
<path opacity="0.2" d="M20.25 4.5H3.75C3.55109 4.5 3.36032 4.57902 3.21967 4.71967C3.07902 4.86032 3 5.05109 3 5.25V18C3 18.1989 3.07902 18.3897 3.21967 18.5303C3.36032 18.671 3.55109 18.75 3.75 18.75H20.25C20.4489 18.75 20.6397 18.671 20.7803 18.5303C20.921 18.3897 21 18.1989 21 18V5.25C21 5.05109 20.921 4.86032 20.7803 4.71967C20.6397 4.57902 20.4489 4.5 20.25 4.5ZM14.25 15.75C13.5083 15.75 12.7833 15.5301 12.1666 15.118C11.5499 14.706 11.0693 14.1203 10.7855 13.4351C10.5016 12.7498 10.4274 11.9958 10.5721 11.2684C10.7167 10.541 11.0739 9.8728 11.5983 9.34835C12.1228 8.8239 12.791 8.46675 13.5184 8.32205C14.2458 8.17736 14.9998 8.25162 15.6851 8.53545C16.3703 8.81928 16.956 9.29993 17.368 9.91661C17.7801 10.5333 18 11.2583 18 12C18 12.4925 17.903 12.9801 17.7145 13.4351C17.5261 13.89 17.2499 14.3034 16.9017 14.6517C16.5534 14.9999 16.14 15.2761 15.6851 15.4645C15.2301 15.653 14.7425 15.75 14.25 15.75Z" fill="url(#paint0_linear_259_9187)"/>
<path d="M20.25 3.75H3.75C3.35218 3.75 2.97064 3.90804 2.68934 4.18934C2.40804 4.47064 2.25 4.85218 2.25 5.25V18C2.25 18.3978 2.40804 18.7794 2.68934 19.0607C2.97064 19.342 3.35218 19.5 3.75 19.5H5.25V21C5.25 21.1989 5.32902 21.3897 5.46967 21.5303C5.61032 21.671 5.80109 21.75 6 21.75C6.19891 21.75 6.38968 21.671 6.53033 21.5303C6.67098 21.3897 6.75 21.1989 6.75 21V19.5H17.25V21C17.25 21.1989 17.329 21.3897 17.4697 21.5303C17.6103 21.671 17.8011 21.75 18 21.75C18.1989 21.75 18.3897 21.671 18.5303 21.5303C18.671 21.3897 18.75 21.1989 18.75 21V19.5H20.25C20.6478 19.5 21.0294 19.342 21.3107 19.0607C21.592 18.7794 21.75 18.3978 21.75 18V5.25C21.75 4.85218 21.592 4.47064 21.3107 4.18934C21.0294 3.90804 20.6478 3.75 20.25 3.75ZM20.25 18H3.75V5.25H20.25V11.25H18.6863C18.4982 10.1375 17.899 9.13615 17.0075 8.44452C16.116 7.75289 14.9972 7.4214 13.8729 7.51576C12.7485 7.61012 11.7006 8.12343 10.9368 8.95397C10.1731 9.78451 9.74919 10.8717 9.74919 12C9.74919 13.1283 10.1731 14.2155 10.9368 15.046C11.7006 15.8766 12.7485 16.3899 13.8729 16.4842C14.9972 16.5786 16.116 16.2471 17.0075 15.5555C17.899 14.8639 18.4982 13.8625 18.6863 12.75H20.25V18ZM15.5475 11.25C15.3824 10.964 15.1276 10.7405 14.8225 10.6142C14.5174 10.4878 14.1792 10.4656 13.8602 10.5511C13.5413 10.6366 13.2594 10.8249 13.0584 11.0869C12.8574 11.3488 12.7485 11.6698 12.7485 12C12.7485 12.3302 12.8574 12.6512 13.0584 12.9131C13.2594 13.1751 13.5413 13.3634 13.8602 13.4489C14.1792 13.5344 14.5174 13.5122 14.8225 13.3858C15.1276 13.2595 15.3824 13.036 15.5475 12.75H17.1562C16.9737 13.457 16.5396 14.0731 15.9352 14.483C15.3309 14.8928 14.5979 15.0681 13.8735 14.9761C13.1491 14.8841 12.4832 14.5311 12.0005 13.9832C11.5178 13.4353 11.2515 12.7302 11.2515 12C11.2515 11.2698 11.5178 10.5647 12.0005 10.0168C12.4832 9.46895 13.1491 9.11592 13.8735 9.02391C14.5979 8.93191 15.3309 9.10724 15.9352 9.51705C16.5396 9.92686 16.9737 10.543 17.1562 11.25H15.5475Z" fill="url(#paint1_linear_259_9187)"/>
<defs>
<linearGradient id="paint0_linear_259_9187" x1="3" y1="4.5" x2="21.3809" y2="5.00959" gradientUnits="userSpaceOnUse">
<stop stop-color="#8AD4EC"/>
<stop offset="0.217372" stop-color="#EF96FF"/>
<stop offset="0.540308" stop-color="#FF56A9"/>
<stop offset="0.852826" stop-color="#FFAA6C"/>
</linearGradient>
<linearGradient id="paint1_linear_259_9187" x1="2.25" y1="3.75" x2="22.1667" y2="4.22356" gradientUnits="userSpaceOnUse">
<stop stop-color="#8AD4EC"/>
<stop offset="0.217372" stop-color="#EF96FF"/>
<stop offset="0.540308" stop-color="#FF56A9"/>
<stop offset="0.852826" stop-color="#FFAA6C"/>
</linearGradient>
</defs>
</svg>
